<?xml version="1.0" standalone="no"?>
<!DOCTYPE svg PUBLIC "-//W3C//DTD SVG 20010904//EN"
 "http://www.w3.org/TR/2001/REC-SVG-20010904/DTD/svg10.dtd">
<svg version="1.0" xmlns="http://www.w3.org/2000/svg"
 width="512.000000pt" height="512.000000pt" viewBox="0 0 512.000000 512.000000"
 preserveAspectRatio="xMidYMid meet">
<metadata>
Created by potrace 1.14, written by Peter Selinger 2001-2017
</metadata>
<g transform="translate(0.000000,512.000000) scale(0.100000,-0.100000)"
fill="#000000" stroke="none">
<path d="M2993 5106 c-75 -24 -129 -64 -250 -183 -65 -65 -127 -129 -138 -143
-205 -261 -309 -496 -359 -807 -1 -7 -4 -15 -7 -17 -7 -8 -71 -14 -209 -21
-69 -3 -147 -8 -175 -11 -99 -10 -151 -15 -185 -19 -19 -2 -64 -7 -100 -11
-36 -3 -74 -8 -85 -10 -11 -2 -40 -7 -65 -10 -25 -3 -56 -7 -69 -9 -13 -2 -45
-7 -70 -11 -69 -9 -115 -17 -206 -34 -27 -5 -61 -12 -75 -14 -117 -22 -153
-30 -210 -47 -210 -62 -374 -253 -407 -474 -8 -53 -9 -398 -1 -455 12 -93 17
-112 57 -195 41 -86 121 -179 201 -232 42 -29 45 -34 47 -79 10 -233 85 -562
190 -834 131 -341 351 -684 603 -941 88 -91 93 -93 155 -74 14 4 30 -3 54 -25
18 -17 60 -53 93 -79 57 -46 60 -51 62 -96 2 -58 11 -66 161 -139 193 -95 320
-127 525 -131 176 -4 294 15 452 71 149 52 271 126 438 267 398 333 693 765
863 1257 33 94 87 285 93 325 1 11 8 45 14 75 17 86 29 167 36 255 7 78 10
109 12 116 1 4 21 19 43 34 23 15 68 54 100 86 65 66 130 187 150 279 17 76
16 477 -1 555 -36 172 -160 329 -317 402 -57 26 -82 24 -113 -9 l-18 -20 -139
27 c-76 15 -139 29 -141 30 -3 3 -9 29 -11 47 -2 21 -61 39 -191 58 -80 12
-156 23 -170 25 -14 2 -52 7 -85 10 -33 3 -72 7 -85 10 -14 3 -57 7 -97 10
-39 2 -89 7 -110 9 -21 3 -87 8 -148 11 -100 5 -187 14 -192 19 -1 1 11 40 27
86 62 187 155 315 363 500 145 130 147 360 4 491 -80 73 -217 106 -314 75z"/>
</g>
</svg>
